<?xml version="1.0" encoding="UTF-8"?>
<svg width="400px" height="400px" viewBox="0 0 400 400" version="1.1" xmlns="http://www.w3.org/2000/svg" xmlns:xlink="http://www.w3.org/1999/xlink">
    <!-- Generator: Sketch 52.5 (67469) - http://www.bohemiancoding.com/sketch -->
    <title>Logo_White</title>
    <desc>Created with Sketch.</desc>
    <g id="Logo_White" stroke="none" stroke-width="1" fill="none" fill-rule="evenodd">
        <g id="crio-head-" transform="translate(102.000000, 35.000000)" fill="#000000" fill-rule="nonzero">
            <path d="M131.887829,138.032258 C131.887829,136.562468 130.707705,135.370968 129.251948,135.370968 C127.796191,135.370968 126.616067,136.562468 126.616067,138.032258 C126.616067,143.61746 122.131595,148.145161 116.599718,148.145161 L102.014508,148.145161 L102.014508,133.128689 C106.373135,132.02857 112.030857,129.105959 112.030857,125.612903 C112.030857,121.156789 106.073043,117.629032 98.8514508,117.629032 C91.6298584,117.629032 85.6720446,121.156789 85.6720446,125.612903 C85.6720446,129.444053 92.0776455,132.588987 96.7427458,133.395775 L96.7427458,148.145161 L82.1575362,148.145161 C76.6256596,148.145161 72.1411875,143.61746 72.1411875,138.032258 C72.1411875,136.562468 70.9610632,135.370968 69.5053062,135.370968 C68.0495492,135.370968 66.869425,136.562468 66.869425,138.032258 C66.869425,145.613836 72.283302,151.918747 79.4207579,153.221118 C79.5514883,154.226269 79.7368761,155.587023 79.9772283,157.305994 C80.5494031,161.398123 81.4345664,167.530796 82.6330175,175.706225 C83.0749941,178.721571 85.6194103,180.967185 88.6382854,181.006261 L98.177308,181.129735 C98.7612337,181.137294 99.1941587,181.118832 99.5233696,181.048085 C99.7499974,181.115595 99.9892675,181.153189 100.236652,181.156392 L110.004503,181.282828 C113.069825,181.322505 115.696076,179.07702 116.162219,176.017887 L119.645013,153.161497 C126.629383,151.73615 131.887829,145.504212 131.887829,138.032258 Z M117.81326,48.3950097 L107.991589,35.245101 L109.316922,42.059994 L94.5173726,26.6129032 L97.8747737,37.6185997 L97.4483094,37.8645194 L85.3205937,31.1561652 L89.1309817,42.6606864 L16.2682577,84.6768011 C10.1832928,88.1856815 6.74480846,95.0092702 7.51818906,102.0411 L14.0010379,160.985284 C14.6447679,166.838289 18.123027,171.987377 23.2850981,174.729071 L90.3188664,210.332233 C95.4402571,213.05232 101.559743,213.05232 106.681134,210.332233 L173.714902,174.729071 C178.876973,171.987377 182.355232,166.838289 182.998962,160.985284 L189.481811,102.0411 C190.255192,95.0092702 186.816707,88.1856815 180.731742,84.6768011 L117.81326,48.3950097 Z M122.554849,42.9565267 L184.217792,78.5143149 C192.736743,83.4267474 197.550621,92.9797717 196.467888,102.824333 L189.98504,161.768518 C189.083818,169.962724 184.214255,177.171448 176.987355,181.009819 L109.953587,216.612981 C102.78364,220.421103 94.21636,220.421103 87.046413,216.612981 L20.0126446,181.009819 C12.7857451,177.171448 7.91618239,169.962724 7.01496035,161.768518 L0.532111535,102.824333 C-0.550621303,92.9797717 4.26325682,83.4267474 12.7822076,78.5143149 L80.6351309,39.3870898 L72.9652795,16.2298763 L86.2340538,23.5693984 L79.1581635,0.374344155 L97.8387043,19.8722363 L95.2073823,6.3419152 L122.554849,42.9565267 Z M48.4182562,102.702374 C48.4182562,105.715155 49.589759,108.326233 51.5422636,110.334753 C53.4947682,112.343274 56.0330242,113.548387 58.9617812,113.548387 C60.133284,113.548387 61.1095363,113.347535 62.0857886,113.146683 C66.3812988,111.740718 69.5053062,107.723676 69.5053062,102.903226 C69.5053062,97.0785149 64.8192951,92.2580645 59.1570317,92.2580645 C56.6187756,92.2580645 54.2757701,93.262325 52.5185159,94.6682897 C49.7850094,96.2751065 48.4182562,99.287888 48.4182562,102.702374 Z M125.73744,102.702374 C125.73744,105.715155 126.908942,108.326233 128.861447,110.334753 C130.813952,112.343274 133.352208,113.548387 136.280965,113.548387 C137.452467,113.548387 138.42872,113.347535 139.404972,113.146683 C143.700482,111.740718 146.82449,107.723676 146.82449,102.903226 C146.82449,97.0785149 142.138479,92.2580645 136.476215,92.2580645 C133.937959,92.2580645 131.594954,93.262325 129.837699,94.6682897 C127.104193,96.2751065 125.73744,99.287888 125.73744,102.702374 Z M185.659807,70.6129032 C185.659807,70.6129032 187.06561,67.7741935 185.659807,64.5806452 C183.375376,59.4354839 179.333692,50.2096774 175.292007,47.7258065 C170.898872,45.2419355 159.125269,46.1290323 153.677781,46.6612903 C153.32633,46.6612903 150.338998,47.3709677 149.811822,48.4354839 C149.460371,49.3225806 145.770137,55.5322581 145.770137,55.5322581 L149.284645,57.483871 L182.321024,76.4677419 L185.659807,70.6129032 Z M143.394127,45.5257335 L143.524878,45.26171 C145.366895,41.5421626 149.980722,39.7318403 153.225983,39.5756102 C165.013471,38.4348496 173.357378,38.4981878 178.726408,41.5338283 L178.946723,41.6637522 C182.674316,43.9545942 185.53975,48.1246833 188.688487,54.3886664 C189.783356,56.5667574 190.482469,58.0934426 192.083003,61.6983722 C193.617963,65.1853236 193.617963,68.6483735 192.718218,71.7521369 C192.475818,72.5883204 192.203106,73.2690233 191.94675,73.7866771 L191.854375,73.9732085 L184.922712,86.128467 L178.844158,82.6355151 L145.897231,63.7021774 L135.987896,58.199506 L139.742805,51.8809979 C139.865798,51.6740332 140.083988,51.3055673 140.365331,50.8281962 C140.834143,50.0327379 141.302697,49.2324587 141.738235,48.4812421 C141.776379,48.4154375 141.776379,48.4154375 141.814474,48.3496623 C142.29035,47.5278176 142.691878,46.8242727 142.992642,46.2835028 C143.148145,46.0039112 143.271346,45.7773839 143.354985,45.6178217 C143.365751,45.5972836 143.365852,45.5971008 143.28948,45.7898729 L143.394127,45.5257335 Z M51.4055883,55.1774194 C50.7026866,53.9354839 47.8910799,49.1451613 47.5396291,48.4354839 C47.0124528,47.1935484 44.0251208,46.6612903 43.6736699,46.6612903 C38.0504566,46.1290323 26.4525791,45.2419355 22.0594436,47.7258065 C18.0177591,50.0322581 13.9760745,59.4354839 11.691644,64.5806452 C10.2858407,67.7741935 11.691644,70.6129032 11.691644,70.6129032 L15.030427,76.2903226 L51.4055883,55.1774194 Z M53.8539571,45.3129333 C54.0012486,45.5813873 54.6691416,46.7486129 55.5828708,48.3253901 L55.6007553,48.3562513 C55.7760696,48.6587619 56.5266099,49.9524918 56.7056217,50.2615029 C57.0966491,50.9364965 57.3453824,51.3682545 57.5084838,51.6564333 L60.9868063,57.8021752 L12.5249476,85.93045 L5.51817182,74.0158076 L5.4047004,73.7866771 C5.14834469,73.2690233 4.87563303,72.5883204 4.63323306,71.7521369 C3.73348776,68.6483735 3.73348776,65.1853236 5.27760078,61.6776678 C7.14824163,57.4644736 7.56272908,56.5521449 8.62956884,54.4084747 C11.8439093,47.9496922 14.7213332,43.761478 18.6250424,41.5338283 C23.9892899,38.5008922 31.9647281,38.4367749 44.0672589,39.5707766 C47.5500646,39.6809082 51.9426818,41.2569236 53.8539571,45.3129333 Z M85.1972319,156.561976 C85.0278342,155.350463 84.8862408,154.320343 84.7725627,153.472562 C87.6375698,153.481044 91.3607662,153.500983 96.6955453,153.534435 C96.4331641,161.5272 96.2106799,167.587311 96.0282606,171.711547 C95.9539464,173.391683 95.886389,174.747769 95.8258836,175.77628 L88.7058665,175.684118 C88.2745951,175.678535 87.9111155,175.357741 87.8479775,174.926988 C86.6510991,166.762286 85.7674194,160.639892 85.1972319,156.561976 Z M102.820369,175.866817 L102.078601,153.568882 C108.3787,153.609276 111.816317,153.629766 114.238482,153.638902 L110.951758,175.20855 C110.885166,175.645569 110.509987,175.966353 110.072084,175.960684 L102.820369,175.866817 Z" id="Combined-Shape"></path>
        </g>
        <text id="Crio.Do" font-family="AvenirNext-Medium, Avenir Next" font-size="90" font-weight="400" line-spacing="90" fill="#000000">
            <tspan x="38" y="371.529846">Crio.</tspan>
            <tspan x="226.1" y="370" font-family="AvenirNext-Bold, Avenir Next" font-weight="bold">Do</tspan>
        </text>
    </g>
</svg>